<svg class="icon" viewBox="0 0 1024 1024" version="1.1" xmlns="http://www.w3.org/2000/svg" p-id="2736" height="128" width="128"><path d="M640 639.936h128V768h-128zM832 639.936h128V768h-128zM640 832h128v128h-128zM832 832h128v128h-128z" fill="#828282" p-id="2737"></path><path d="M512 64C264.32 64 64 264.32 64 512s200.32 448 448 448c21.76 0 43.52-1.28 64-5.12V896l-37.12 6.4c-8.96 0.64-17.92 1.28-26.88 1.28s-17.92-0.64-26.88-1.28c-24.32-49.28-43.52-104.32-57.6-163.2 27.52-2.56 55.68-3.84 84.48-3.84 21.76 0 42.88 0.64 64 2.56v-55.68c-21.12-1.92-42.24-2.56-64-2.56-32.64 0-64.64 1.92-96 4.48-8.96-46.08-13.44-94.72-14.72-144h221.44c0 12.16-0.64 23.68-1.28 35.84h55.68l1.92-35.84h224c-0.64 12.16-2.56 24.32-4.48 35.84h56.32c3.84-20.48 5.12-42.24 5.12-64 0-247.68-200.32-448-448-448z m-26.88 57.6c8.96-0.64 17.92-1.28 26.88-1.28s17.92 0.64 26.88 1.28c24.32 49.28 43.52 104.32 57.6 163.2-27.52 2.56-55.68 3.84-84.48 3.84s-56.96-1.28-84.48-3.84c14.08-58.88 33.28-113.92 57.6-163.2zM187.52 292.48c53.12 17.92 111.36 31.36 171.52 40.32-8.32 48-12.16 99.2-14.08 151.04h-224c5.12-70.4 28.8-135.68 66.56-191.36z m0 438.4c-37.76-55.04-61.44-120.32-66.56-190.72h224c1.92 51.84 5.76 102.4 14.08 151.04-60.16 8.96-118.4 22.4-171.52 39.68z m228.48 160.64a391.04 391.04 0 0 1-190.08-112c45.44-14.72 94.08-25.6 144-32.64 12.16 51.2 27.52 99.84 46.08 144.64z m-46.08-614.4c-49.92-7.04-98.56-17.92-144-32.64A391.04 391.04 0 0 1 416 132.48c-18.56 44.8-33.92 93.44-46.08 144.64z m31.36 206.72c1.28-49.28 5.76-97.92 14.72-144 31.36 2.56 63.36 4.48 96 4.48s64.64-1.92 96-4.48c8.96 46.08 13.44 94.72 14.72 144H401.28zM608 132.48c74.24 18.56 139.52 58.24 190.08 112-45.44 14.72-94.08 25.6-144 32.64-12.16-51.2-27.52-99.84-46.08-144.64z m71.04 351.36c-1.92-51.84-5.76-103.04-14.08-151.04 60.16-8.96 118.464-22.4 171.584-40.32 37.76 55.68 61.44 120.96 66.56 191.36H679.04z" fill="#828282" p-id="2738"></path></svg>